<?xml version="1.0" encoding="UTF-8"?>
<svg width="1024" height="1024" viewBox="0 0 1024 1024" xmlns="http://www.w3.org/2000/svg">
  <defs>
    <!-- Gradient background -->
    <linearGradient id="backgroundGradient" x1="0%" y1="0%" x2="100%" y2="100%">
      <stop offset="0%" style="stop-color:#6366F1;stop-opacity:1" />
      <stop offset="100%" style="stop-color:#8B5CF6;stop-opacity:1" />
    </linearGradient>
    
    <!-- Shadow filter -->
    <filter id="shadow" x="-50%" y="-50%" width="200%" height="200%">
      <feDropShadow dx="0" dy="8" stdDeviation="4" flood-color="#000000" flood-opacity="0.25"/>
    </filter>
  </defs>
  
  <!-- Background rounded rectangle -->
  <rect x="0" y="0" width="1024" height="1024" rx="184" ry="184" fill="url(#backgroundGradient)"/>
  
  <!-- Graduation cap -->
  <g transform="translate(512,400)" filter="url(#shadow)">
    <!-- Cap base -->
    <ellipse cx="0" cy="0" rx="180" ry="60" fill="#FFFFFF"/>
    <!-- Cap top -->
    <rect x="-200" y="-20" width="400" height="40" rx="20" ry="20" fill="#FFFFFF"/>
    <!-- Tassel -->
    <line x1="180" y1="-20" x2="220" y2="-60" stroke="#F59E0B" stroke-width="8" stroke-linecap="round"/>
    <circle cx="220" cy="-60" r="16" fill="#F59E0B"/>
  </g>
  
  <!-- Book/Knowledge symbol -->
  <g transform="translate(512,600)" filter="url(#shadow)">
    <!-- Book pages -->
    <rect x="-80" y="-30" width="160" height="60" rx="8" ry="8" fill="#FFFFFF" opacity="0.9"/>
    <!-- Book spine -->
    <rect x="-5" y="-30" width="10" height="60" fill="#F59E0B"/>
    <!-- Pages effect -->
    <rect x="-75" y="-25" width="150" height="50" rx="6" ry="6" fill="none" stroke="#E5E7EB" stroke-width="2"/>
  </g>
  
  <!-- Radiant rays (optional) -->
  <g transform="translate(512,300)" opacity="0.3">
    <path d="M0,-80 L0,-120" stroke="#FFFFFF" stroke-width="6" stroke-linecap="round"/>
    <path d="M56,-56 L80,-80" stroke="#FFFFFF" stroke-width="4" stroke-linecap="round"/>
    <path d="M-56,-56 L-80,-80" stroke="#FFFFFF" stroke-width="4" stroke-linecap="round"/>
  </g>
</svg>